<!DOCTYPE svg PUBLIC "-//W3C//DTD SVG 1.1//EN" "http://www.w3.org/Graphics/SVG/1.1/DTD/svg11.dtd">
<!-- Uploaded to: SVG Repo, www.svgrepo.com, Transformed by: SVG Repo Mixer Tools -->
<svg fill="#f4f1eb" width="800px" height="800px" viewBox="0 0 512 512" version="1.1" xml:space="preserve" xmlns="http://www.w3.org/2000/svg" xmlns:xlink="http://www.w3.org/1999/xlink" stroke="#f4f1eb">
<g id="SVGRepo_bgCarrier" stroke-width="0"/>
<g id="SVGRepo_tracerCarrier" stroke-linecap="round" stroke-linejoin="round"/>
<g id="SVGRepo_iconCarrier"> <g id="A_-_119_x2C__connected_x2C__connections_x2C__user_x2C__internet_x2C__global"> <g> <path d="M324.969,286.268c0.322-0.434,0.652-0.86,0.982-1.288c0.32-0.412,0.646-0.821,0.975-1.229 c0.512-0.633,1.03-1.259,1.559-1.878c0.244-0.284,0.49-0.566,0.737-0.848c0.646-0.737,1.307-1.461,1.979-2.174 c0.176-0.187,0.352-0.371,0.528-0.557c0.787-0.818,1.59-1.621,2.409-2.407c0.09-0.086,0.179-0.173,0.269-0.258 c5.252-4.998,11.154-9.315,17.578-12.815c0.068-0.037,0.136-0.072,0.203-0.109c1.053-0.57,2.119-1.118,3.197-1.643 c0.182-0.088,0.363-0.175,0.545-0.263c0.941-0.448,1.892-0.88,2.852-1.294c0.17-0.074,0.339-0.152,0.51-0.224h-33.493 c-0.12,9.693-0.755,19.216-1.921,28.481C324.234,287.26,324.6,286.762,324.969,286.268z"/> <path d="M228.349,382.337c-9.278-6.86-17.735-17.426-24.869-31.303c-3.906-7.6-7.275-15.955-10.098-24.874 c-13.225,2.621-26.431,6.084-39.6,10.395C172.244,359.568,198.415,376.15,228.349,382.337z"/> <path d="M251.244,259.282h-61.436c0.265,21.093,3.076,41.318,8.158,59.333c17.75-3.19,35.525-4.896,53.277-5.1V259.282z"/> <path d="M149.589,331.036c13.933-4.657,27.911-8.388,41.909-11.19c-5.149-18.461-7.985-39.098-8.249-60.563h-57.76 C126.159,285.993,134.998,310.71,149.589,331.036z"/> <path d="M359.088,180.536c-13.832,4.657-27.734,8.384-41.683,11.179c5.236,18.58,8.126,39.374,8.392,61.007h57.684 C382.807,225.821,373.856,200.943,359.088,180.536z"/> <path d="M195.583,202.584c-3.632,15.75-5.557,32.604-5.772,50.138h61.434v-54.755c-17.321-0.184-34.645-1.794-51.934-4.836 c-0.117,0.358-0.228,0.717-0.349,1.073c-0.241,0.705-0.499,1.403-0.758,2.102c-0.133,0.356-0.266,0.712-0.404,1.067 c-0.286,0.737-0.58,1.471-0.887,2.2c-0.096,0.227-0.197,0.451-0.294,0.678C196.28,201.031,195.945,201.813,195.583,202.584z"/> <path d="M202.575,179.222c-0.178,1.236-0.394,2.463-0.628,3.687c-0.072,0.384-0.153,0.765-0.23,1.147 c-0.159,0.77-0.327,1.537-0.507,2.301c-0.034,0.146-0.062,0.295-0.097,0.44c16.687,2.9,33.412,4.438,50.132,4.619v-64.235 C232.185,129.162,214.194,148.284,202.575,179.222z"/> <path d="M185.973,218.227c-1.905,2.449-3.94,4.816-6.134,7.068c-3.154,3.237-6.542,6.168-10.107,8.814 c-0.013,0.009-0.021,0.022-0.034,0.031c-0.063,0.047-0.129,0.09-0.192,0.136c-7.08,5.218-14.894,9.247-23.19,11.975 c-0.023,0.008-0.046,0.016-0.07,0.023c-1.024,0.337-2.056,0.654-3.096,0.951c-0.004,0.001-0.009,0.003-0.014,0.004 c-5.673,1.616-11.542,2.652-17.54,3.035c-0.037,0.814-0.066,1.636-0.091,2.458h57.747 C183.394,240.886,184.304,229.35,185.973,218.227z"/> <path d="M104.269,169.523c0.69-0.62,1.608-0.919,2.533-0.825c0.923,0.095,1.763,0.577,2.311,1.327l11.16,15.273l11.232-15.28 c0.549-0.747,1.387-1.226,2.31-1.32c0.921-0.095,1.84,0.206,2.529,0.826l4.943,4.456l27.663,10.856 c1.255,0.493,2.082,1.704,2.082,3.053v36.651c15.828-14.041,25.83-34.511,25.83-57.282c0-1.3-0.034-2.592-0.099-3.875 c-0.007-0.143-0.022-0.285-0.029-0.428c-0.429-7.687-1.987-15.077-4.526-21.999c-0.001-0.004-0.003-0.008-0.004-0.012 c-10.756-29.309-38.944-50.276-71.938-50.276c-42.189,0-76.513,34.359-76.513,76.591c0,22.784,10.002,43.265,25.83,57.306v-36.675 c0-1.349,0.826-2.561,2.082-3.053l27.661-10.856L104.269,169.523z M120.725,108.456c14.771,0,26.79,12.019,26.79,26.793 c0,13.399-8.953,37.335-26.79,37.335c-17.593,0-26.797-24.305-26.797-37.335C93.928,120.475,105.949,108.456,120.725,108.456z"/> <path d="M120.725,166.024c12.549,0,20.23-19.925,20.23-30.775c0-11.157-9.075-20.233-20.23-20.233 c-11.159,0-20.237,9.076-20.237,20.233C100.488,146.099,108.171,166.024,120.725,166.024z"/> <path d="M203.03,159.21c0.045,0.479,0.091,0.959,0.128,1.44c0.022,0.276,0.04,0.553,0.059,0.829 c7.167-14.018,15.855-24.843,25.4-31.851c-10.338,2.105-20.408,5.452-29.897,9.979c2.113,5.93,3.501,12.105,4.189,18.454 C202.952,158.444,202.993,158.827,203.03,159.21z"/> <polygon points="126.445,192.085 135.324,177.436 134.645,176.823 124.646,190.424 "/> <polygon points="105.201,177.515 113.611,192.865 115.961,190.513 105.961,176.83 "/> <path d="M251.244,320.078c-17.112,0.202-34.251,1.823-51.366,4.857c2.661,8.275,5.805,16.034,9.437,23.099 c11.459,22.292,26.242,35.218,41.93,36.803V320.078z"/> <polygon points="406.717,346.023 406.025,345.391 396.025,359.051 397.777,360.688 "/> <path d="M280.672,129.668c9.273,6.859,17.729,17.424,24.866,31.3c3.847,7.478,7.171,15.689,9.968,24.443 c13.173-2.612,26.307-6.069,39.378-10.376C336.45,152.231,310.416,135.815,280.672,129.668z"/> <polygon points="387.35,359.113 377.36,345.396 376.578,346.113 384.943,361.493 "/> <path d="M392.111,283.629c-11.155,0-20.23,9.076-20.23,20.232c0,10.851,7.682,30.779,20.23,30.779 c12.554,0,20.237-19.929,20.237-30.779C412.349,292.705,403.271,283.629,392.111,283.629z"/> <path d="M414.178,262.665c-0.568-42.14-17.109-88.07-46.742-118.279c-28.466-29.018-65.567-45.791-105.183-47.723l8.247-8.248 c1.279-1.281,1.279-3.358-0.002-4.639c-1.281-1.281-3.357-1.28-4.639,0l-13.65,13.656c-0.029,0.029-0.05,0.064-0.079,0.094 c-0.116,0.125-0.229,0.253-0.323,0.392c-0.002,0.003-0.002,0.006-0.004,0.008c-0.114,0.171-0.211,0.351-0.291,0.537 c-0.025,0.058-0.038,0.121-0.059,0.181c-0.049,0.136-0.098,0.272-0.129,0.414c-0.016,0.071-0.019,0.146-0.028,0.218 c-0.02,0.138-0.04,0.275-0.042,0.415c0,0.021-0.006,0.04-0.006,0.062c0,0.063,0.016,0.122,0.02,0.185 c0.006,0.127,0.015,0.254,0.038,0.38c0.016,0.094,0.041,0.182,0.064,0.271c0.029,0.111,0.061,0.219,0.101,0.326 c0.036,0.094,0.077,0.182,0.121,0.271c0.047,0.096,0.096,0.19,0.153,0.283c0.056,0.09,0.116,0.174,0.18,0.258 c0.036,0.047,0.063,0.101,0.103,0.147l12.667,14.94c0.65,0.765,1.574,1.158,2.504,1.158c0.749,0,1.503-0.255,2.119-0.779 c1.383-1.171,1.553-3.24,0.381-4.622l-7.923-9.345c79.792,4.141,143.812,76.166,145.821,157.734 c-5.143-1.093-10.471-1.679-15.937-1.679c-1.934,0-3.845,0.096-5.743,0.238c-0.822,0.061-1.646,0.121-2.461,0.207 c-0.557,0.06-1.107,0.14-1.661,0.211c-0.677,0.087-1.356,0.168-2.028,0.272c-0.811,0.126-1.611,0.279-2.414,0.432 c-0.404,0.077-0.813,0.141-1.213,0.224c-14.9,3.078-28.232,10.496-38.608,20.872c-0.001,0.002-0.002,0.003-0.003,0.004 c-0.843,0.842-1.664,1.705-2.467,2.586c-0.059,0.065-0.117,0.132-0.177,0.197c-0.739,0.816-1.46,1.648-2.163,2.496 c-0.107,0.131-0.215,0.263-0.322,0.394c-0.645,0.787-1.273,1.587-1.887,2.4c-0.146,0.193-0.291,0.39-0.437,0.584 c-0.56,0.757-1.105,1.525-1.638,2.303c-0.177,0.259-0.353,0.519-0.526,0.779c-0.483,0.725-0.952,1.458-1.411,2.199 c-0.199,0.32-0.396,0.642-0.59,0.966c-0.415,0.694-0.817,1.396-1.211,2.104c-0.211,0.379-0.421,0.758-0.625,1.141 c-0.356,0.666-0.698,1.34-1.035,2.018c-0.215,0.434-0.43,0.865-0.637,1.301c-0.305,0.643-0.594,1.294-0.881,1.945 c-0.211,0.479-0.423,0.957-0.623,1.442c-0.259,0.624-0.504,1.258-0.746,1.89c-0.2,0.521-0.402,1.041-0.592,1.566 c-0.22,0.611-0.423,1.231-0.627,1.85c-0.184,0.555-0.371,1.107-0.541,1.668c-0.186,0.609-0.354,1.227-0.523,1.843 c-0.162,0.576-0.326,1.151-0.474,1.733c-0.157,0.618-0.292,1.246-0.433,1.87c-0.133,0.588-0.271,1.173-0.391,1.765 c-0.121,0.6-0.219,1.206-0.324,1.811c-0.01,0.076-0.006,0.153-0.021,0.232c-0.011,0.059-0.036,0.111-0.05,0.17 c-0.043,0.254-0.09,0.506-0.131,0.761c-0.088,0.563-0.174,1.128-0.246,1.691c-0.002,0.002-0.002,0.004-0.002,0.006 c-0.051,0.37-0.097,0.741-0.143,1.113c-0.066,0.552-0.146,1.1-0.202,1.654c-0.079,0.804-0.13,1.616-0.185,2.427 c-0.031,0.458-0.077,0.911-0.101,1.372c-0.063,1.276-0.097,2.561-0.097,3.852c0,1.237,0.034,2.466,0.093,3.688 c0.006,0.123,0.009,0.246,0.015,0.368c0.063,1.187,0.154,2.366,0.271,3.538c0.012,0.135,0.025,0.27,0.04,0.405 c0.122,1.187,0.272,2.364,0.45,3.532c0.013,0.091,0.027,0.182,0.042,0.271c0.577,3.719,1.422,7.35,2.516,10.873 c0.014,0.042,0.026,0.085,0.04,0.128c4.219,13.499,12.089,25.392,22.437,34.547v-36.72c0-1.35,0.825-2.56,2.081-3.053 l27.648-10.852l4.93-4.517c0.688-0.632,1.615-0.94,2.543-0.846c0.93,0.094,1.775,0.578,2.324,1.333l11.164,15.332l11.229-15.339 c0.551-0.752,1.396-1.234,2.323-1.326c0.931-0.093,1.852,0.215,2.539,0.845l4.932,4.518l27.575,10.853 c1.255,0.494,2.079,1.703,2.079,3.052v36.72c15.871-14.044,25.904-34.543,25.904-57.352 C468.248,301.474,445.453,272.305,414.178,262.665z M392.111,341.2c-17.589,0-26.789-24.309-26.789-37.339 c0-14.772,12.018-26.792,26.789-26.792c14.775,0,26.797,12.02,26.797,26.792C418.908,316.892,409.705,341.2,392.111,341.2z"/> <path d="M401.283,367.54c-0.514,0.842-1.379,1.408-2.355,1.542c-0.148,0.021-0.298,0.031-0.445,0.031 c-0.054,0-0.107-0.013-0.161-0.016c-0.089-0.005-0.177-0.014-0.265-0.024c-0.139-0.019-0.274-0.046-0.408-0.083 c-0.085-0.021-0.168-0.042-0.25-0.071c-0.141-0.049-0.275-0.113-0.409-0.183c-0.067-0.034-0.136-0.062-0.2-0.101 c-0.192-0.116-0.377-0.249-0.545-0.405l-4.52-4.22l-5.269,5.215c-0.171,0.169-0.36,0.313-0.56,0.438 c-0.063,0.038-0.131,0.067-0.195,0.103c-0.143,0.077-0.287,0.146-0.438,0.202c-0.081,0.028-0.163,0.051-0.245,0.073 c-0.146,0.04-0.291,0.07-0.441,0.091c-0.088,0.011-0.175,0.021-0.264,0.025c-0.055,0.003-0.107,0.017-0.164,0.017 c-0.158,0-0.318-0.012-0.478-0.035c-0.765-0.113-1.458-0.49-1.964-1.055c-0.168-0.188-0.316-0.396-0.439-0.623l-10.294-18.924 l-23.438,9.199v39.678c0.234,0.165,0.465,0.336,0.701,0.499c0.408,0.281,0.816,0.56,1.229,0.832 c0.528,0.351,1.064,0.69,1.602,1.028c0.416,0.262,0.831,0.527,1.252,0.781c0.867,0.521,1.742,1.026,2.629,1.514 c0.304,0.165,0.609,0.321,0.916,0.483c0.367,0.195,0.74,0.381,1.111,0.57v-34.649c0-1.812,1.469-3.279,3.28-3.279 s3.28,1.468,3.28,3.279v37.615c0.496,0.196,0.988,0.402,1.491,0.589c0.139,0.052,0.277,0.109,0.416,0.159 c1.124,0.411,2.261,0.797,3.407,1.156c0.09,0.027,0.18,0.052,0.27,0.079c1.023,0.316,2.058,0.608,3.1,0.883 c0.24,0.063,0.482,0.123,0.723,0.185c0.954,0.24,1.914,0.462,2.883,0.666c0.207,0.044,0.413,0.092,0.622,0.134 c2.308,0.468,4.654,0.826,7.032,1.081c0.313,0.032,0.629,0.06,0.943,0.09c0.887,0.084,1.775,0.15,2.669,0.203 c0.337,0.021,0.672,0.042,1.009,0.058c1.18,0.056,2.366,0.091,3.56,0.091c1.204,0,2.397-0.035,3.587-0.091 c0.311-0.015,0.617-0.035,0.926-0.053c0.96-0.056,1.916-0.127,2.866-0.219c0.235-0.022,0.474-0.043,0.709-0.067 c7.031-0.741,13.774-2.453,20.111-4.972v-37.587c0-1.812,1.469-3.279,3.28-3.279c1.811,0,3.279,1.468,3.279,3.279v34.612 c2.668-1.365,5.253-2.87,7.73-4.527c0.23-0.155,0.46-0.313,0.69-0.471c0.318-0.219,0.63-0.449,0.945-0.673v-39.68l-23.497-9.246 L401.283,367.54z"/> <path d="M257.804,252.722h61.435c-0.268-21.263-3.131-41.647-8.303-59.778c-17.663,3.171-35.391,4.847-53.132,5.027V252.722z"/> <path d="M257.804,191.423c17.098-0.178,34.183-1.771,51.208-4.784c-2.635-8.111-5.734-15.727-9.307-22.669 c-11.467-22.29-26.238-35.214-41.901-36.801V191.423z"/> <path d="M312.887,362.507c-0.213-0.627-0.418-1.257-0.614-1.887c-0.013-0.041-0.024-0.081-0.038-0.121 c-0.189-0.612-0.373-1.226-0.548-1.841c-0.014-0.045-0.026-0.093-0.039-0.139c-0.176-0.618-0.345-1.237-0.505-1.859 c-0.009-0.036-0.018-0.071-0.027-0.108c-0.163-0.636-0.318-1.273-0.467-1.912c-0.004-0.017-0.008-0.033-0.012-0.05 c-0.805-3.486-1.381-7.021-1.729-10.597c-7.656,17.214-17.35,30.276-28.236,38.321c12.197-2.521,23.998-6.786,34.972-12.711 c-1.031-2.333-1.945-4.698-2.755-7.089C312.889,362.513,312.887,362.51,312.887,362.507z"/> <path d="M257.804,313.516c17.565,0.163,35.102,1.795,52.559,4.895c0.006-0.03,0.013-0.062,0.02-0.091 c0.136-0.639,0.28-1.276,0.433-1.913c0.003-0.014,0.007-0.027,0.01-0.041c0.413-1.719,0.884-3.429,1.412-5.129 c0.012-0.038,0.024-0.077,0.037-0.115c0.193-0.62,0.394-1.238,0.602-1.854c0.012-0.035,0.024-0.068,0.035-0.102 c0.018-0.051,0.035-0.101,0.051-0.149c0.002-0.002,0.002-0.004,0.002-0.006c0.404-1.181,0.828-2.355,1.287-3.523 c3.125-14.645,4.786-30.176,4.989-46.205h-61.436V313.516z"/> <path d="M257.804,384.815c20.614-2.177,40.021-24.702,51.349-59.958c-17.053-3.023-34.185-4.618-51.349-4.781V384.815z"/> <path d="M257.788,412.141c-0.007-0.128-0.017-0.255-0.038-0.382c-0.016-0.092-0.041-0.18-0.064-0.27 c-0.029-0.11-0.061-0.221-0.103-0.329c-0.034-0.092-0.075-0.18-0.118-0.267c-0.049-0.098-0.099-0.194-0.156-0.288 c-0.055-0.088-0.115-0.171-0.178-0.254c-0.038-0.05-0.066-0.105-0.107-0.153l-12.744-14.94c-1.176-1.379-3.246-1.542-4.624-0.367 c-1.378,1.176-1.542,3.246-0.367,4.624l7.98,9.355c-81.031-3.804-145.786-70.913-145.786-152.868 c0-2.862,0.075-9.451,0.223-14.447c0.968,0.243,1.942,0.473,2.926,0.678c0.117,0.024,0.232,0.051,0.35,0.075 c2.341,0.477,4.721,0.842,7.134,1.098c0.295,0.032,0.592,0.058,0.888,0.086c0.9,0.085,1.805,0.153,2.713,0.207 c0.329,0.019,0.658,0.041,0.987,0.057c1.182,0.054,2.368,0.091,3.563,0.091c1.201,0,2.393-0.037,3.58-0.092 c0.316-0.014,0.631-0.036,0.947-0.054c0.942-0.055,1.88-0.125,2.814-0.214c0.257-0.024,0.515-0.046,0.771-0.074 c7.022-0.742,13.757-2.451,20.087-4.968v-37.586c0-1.812,1.469-3.28,3.28-3.28c1.812,0,3.28,1.468,3.28,3.28v34.613 c3.294-1.685,6.449-3.6,9.447-5.727v-39.619l-23.564-9.248l-10.933,18.04c-0.128,0.21-0.277,0.403-0.445,0.577 c-0.503,0.521-1.17,0.867-1.901,0.97c-0.153,0.022-0.307,0.032-0.458,0.032c-0.053,0-0.104-0.012-0.156-0.015 c-0.085-0.003-0.168-0.013-0.251-0.022c-0.144-0.019-0.284-0.046-0.423-0.083c-0.08-0.021-0.158-0.041-0.236-0.068 c-0.146-0.05-0.284-0.114-0.421-0.184c-0.063-0.033-0.129-0.059-0.191-0.096c-0.193-0.116-0.378-0.247-0.546-0.402l-4.588-4.233 l-5.202,5.204c-0.171,0.171-0.361,0.316-0.562,0.443c-0.059,0.037-0.121,0.064-0.182,0.097c-0.149,0.083-0.3,0.156-0.459,0.214 c-0.073,0.026-0.147,0.045-0.223,0.067c-0.154,0.044-0.31,0.078-0.469,0.098c-0.082,0.011-0.161,0.019-0.244,0.025 c-0.061,0.002-0.121,0.017-0.182,0.017c-0.154,0-0.31-0.011-0.464-0.033c-1.022-0.146-1.917-0.765-2.412-1.671l-10.372-18.932 l-23.447,9.202v39.644c2.998,2.127,6.152,4.042,9.447,5.725v-34.636c0-1.812,1.468-3.28,3.28-3.28s3.28,1.468,3.28,3.28v37.606 c1.009,0.401,2.029,0.781,3.058,1.143c-0.188,5.211-0.284,13.094-0.284,16.395c0,85.405,67.431,155.354,151.848,159.413 l-8.21,8.165c-1.284,1.277-1.289,3.354-0.012,4.638c0.641,0.646,1.482,0.968,2.325,0.968c0.836,0,1.673-0.318,2.313-0.955 l13.653-13.578c0.001-0.001,0.002-0.003,0.003-0.004c0.068-0.067,0.121-0.146,0.182-0.22c0.074-0.089,0.156-0.172,0.221-0.267 c0.021-0.031,0.034-0.067,0.055-0.1c0.09-0.145,0.176-0.292,0.242-0.446c0.025-0.061,0.039-0.127,0.063-0.19 c0.047-0.134,0.095-0.267,0.124-0.403c0.017-0.073,0.02-0.149,0.03-0.225c0.02-0.136,0.039-0.271,0.041-0.409 c0-0.021,0.007-0.041,0.007-0.063C257.808,412.263,257.792,412.203,257.788,412.141z"/> </g> </g> <g id="Layer_1"/> </g>
</svg>